<?xml version="1.0" standalone="no"?>
<!DOCTYPE svg PUBLIC "-//W3C//DTD SVG 1.1//EN" "http://www.w3.org/Graphics/SVG/1.1/DTD/svg11.dtd" >
<svg xmlns="http://www.w3.org/2000/svg">
<metadata>
Created by FontForge 20120731 at Wed Mar 15 20:38:25 2017
 By admin
</metadata>
<defs>
<font id="iconfont" horiz-adv-x="1024" >
  <font-face 
    font-family="iconfont"
    font-weight="500"
    font-stretch="normal"
    units-per-em="1024"
    panose-1="2 0 6 3 0 0 0 0 0 0"
    ascent="896"
    descent="-128"
    x-height="792"
    bbox="-0.490196 -223.086 1024.38 896"
    underline-thickness="0"
    underline-position="0"
    unicode-range="U+0078-E8F0"
  />
<missing-glyph 
 />
    <glyph glyph-name=".notdef" 
 />
    <glyph glyph-name=".notdef" 
 />
    <glyph glyph-name=".null" horiz-adv-x="0" 
 />
    <glyph glyph-name="nonmarkingreturn" horiz-adv-x="341" 
 />
    <glyph glyph-name="x" unicode="x" horiz-adv-x="1001" 
d="M281 543q-27 -1 -53 -1h-83q-18 0 -36.5 -6t-32.5 -18.5t-23 -32t-9 -45.5v-76h912v41q0 16 -0.5 30t-0.5 18q0 13 -5 29t-17 29.5t-31.5 22.5t-49.5 9h-133v-97h-438v97zM955 310v-52q0 -23 0.5 -52t0.5 -58t-10.5 -47.5t-26 -30t-33 -16t-31.5 -4.5q-14 -1 -29.5 -0.5
t-29.5 0.5h-32l-45 128h-439l-44 -128h-29h-34q-20 0 -45 1q-25 0 -41 9.5t-25.5 23t-13.5 29.5t-4 30v167h911zM163 247q-12 0 -21 -8.5t-9 -21.5t9 -21.5t21 -8.5q13 0 22 8.5t9 21.5t-9 21.5t-22 8.5zM316 123q-8 -26 -14 -48q-5 -19 -10.5 -37t-7.5 -25t-3 -15t1 -14.5
t9.5 -10.5t21.5 -4h37h67h81h80h64h36q23 0 34 12t2 38q-5 13 -9.5 30.5t-9.5 34.5q-5 19 -11 39h-368zM336 498v228q0 11 2.5 23t10 21.5t20.5 15.5t34 6h188q31 0 51.5 -14.5t20.5 -52.5v-227h-327z" />
    <glyph glyph-name="phone" unicode="&#xe637;" 
d="M693 809l-376 -4q-66 -1 -104 -38t-38 -84v-761q0 -58 39 -102.5t107 -42.5l368 9q72 2 116 34.5t44 101.5l-5 751q0 71 -33.5 104t-117.5 32zM777 -83q0 -28 -23 -48.5t-56 -20.5h-372q-33 0 -56 20.5t-23 48.5v756v0q0 29 23 49t56 20h372q33 0 56 -20t23 -49v-756z
M737 676h-450q-10 0 -10 -9v-670q0 -9 10 -9h450q10 0 10 9v670q0 9 -10 9zM704 33l-379 5l-5 593l379 -5zM512 -26q-25 0 -43.5 -15.5t-18.5 -37.5t21.5 -39t50.5 -12q25 4 40.5 18t15.5 35.5t-20 36t-46 14.5v0zM512 -114q-17 0 -28.5 10.5t-11.5 25t11.5 25t28.5 10.5
q18 0 34 -10.5t16 -24.5t-16.5 -25t-33.5 -11zM447 709q0 7 9 7h112q9 0 9 -7q0 -3 -3 -8t-6 -5l-112 -1q-3 0 -6 5.5t-3 8.5z" />
    <glyph glyph-name="caipiao" unicode="&#xe600;" 
d="M512.5 749q-91.5 0 -175 -35.5t-143.5 -95.5t-95.5 -143.5t-35.5 -175t35.5 -174.5t95.5 -143.5t143.5 -96t175 -35.5t174.5 35.5t143.5 96t96 143.5t35.5 174.5t-35.5 175t-96 143.5t-143.5 95.5t-174.5 35.5zM620 62h-215q-69 0 -111 39.5t-42 104.5q0 40 20.5 68
t54.5 39q-66 21 -66 101q0 60 41 91.5t112 31.5h196q71 0 112.5 -31.5t41.5 -91.5q0 -80 -66 -101q34 -11 54.5 -39t20.5 -68q0 -65 -42 -104.5t-111 -39.5zM414 339h196q36 0 53 13.5t17 43.5q0 32 -21.5 45.5t-63.5 13.5h-165q-43 0 -64 -13.5t-21 -45.5q0 -30 16.5 -43.5
t52.5 -13.5zM616 269h-208q-34 0 -53 -16t-19 -46t24.5 -46t64.5 -16h174q41 0 65.5 16t24.5 46t-19 46t-54 16z" />
    <glyph glyph-name="camera" unicode="&#xe665;" 
d="M512 160q-79 0 -135.5 56.5t-56.5 135.5t56.5 135.5t135.5 56.5t135.5 -56.5t56.5 -135.5t-56.5 -135.5t-135.5 -56.5zM512 480q-53 0 -90.5 -37.5t-37.5 -90.5t37.5 -90.5t90.5 -37.5t90.5 37.5t37.5 90.5t-37.5 90.5t-90.5 37.5zM864 0h-704q-40 0 -68 28t-28 68v512
q0 40 28 68t68 28h96q13 0 22.5 -9.5t9.5 -22.5t-9.5 -22.5t-22.5 -9.5h-96q-13 0 -22.5 -9.5t-9.5 -22.5v-512q0 -13 9.5 -22.5t22.5 -9.5h704q13 0 22.5 9.5t9.5 22.5v512q0 13 -9.5 22.5t-22.5 9.5h-352q-13 0 -22.5 9.5t-9.5 22.5t9.5 22.5t22.5 9.5h352q40 0 68 -28
t28 -68v-512q0 -40 -28 -68t-68 -28zM816 560zM768 560q0 20 14 34t34 14t34 -14t14 -34t-14 -34t-34 -14t-34 14t-14 34zM480 768q0 -13 -9.5 -22.5t-22.5 -9.5h-128q-13 0 -22.5 9.5t-9.5 22.5v0q0 13 9.5 22.5t22.5 9.5h128q13 0 22.5 -9.5t9.5 -22.5v0z" />
    <glyph glyph-name="gouwuche" unicode="&#xe607;" 
d="M920 590h-679l-12 97q-1 12 -10.5 20t-21.5 8h-7q-4 0 -7 -1h-83q-15 0 -25 -9t-10 -22.5t10 -22.5t25 -9h69l67 -548q1 -12 10.5 -20.5t21.5 -8.5h7q4 0 7 1h549q15 0 25 9.5t10 22.5t-10 22.5t-25 9.5h-535l-8 67h545q12 0 22.5 8t12.5 20l74 327q3 12 -3.5 20.5
t-18.5 8.5zM295 -66q0 -32 22.5 -54.5t54.5 -22.5t55 22.5t23 54.5t-23 55t-55 23t-54.5 -23t-22.5 -55zM679 -66q0 -32 22.5 -54.5t54.5 -22.5t55 22.5t23 54.5t-23 55t-55 23t-54.5 -23t-22.5 -55z" />
    <glyph glyph-name="movie" unicode="&#xe616;" 
d="M697.5 392q-35.5 0 -60.5 -25t-25 -60t25 -60t60.5 -25t60.5 25t25 60t-25 60t-60.5 25zM948 -72v0.5v0.5q-7 11 -18 17q-69 62 -163 62q-62 0 -116 -29q-67 -28 -140 -28q-97 0 -179.5 47.5t-130.5 129.5t-48 178t48 178t130.5 129.5t179.5 47.5t179.5 -47.5t130 -129.5
t47.5 -178q0 -86 -39 -162l5 -2q-19 -13 -19 -36q0 -17 12 -29.5t30 -12.5q15 0 27 10t15 24l3 -2q53 98 53 210q0 89 -35 171t-94.5 141t-142 93.5t-172.5 34.5t-172.5 -34.5t-142 -93.5t-94.5 -141t-35 -171q0 -116 56 -215.5t153 -159.5t213 -66v1q4 0 10.5 -0.5
t28.5 0.5t44 3.5t52.5 10t58.5 19.5q39 24 84 24q64 0 111 -45l1 1q13 -13 31 -13t30.5 12.5t12.5 30.5q0 10 -5 19v0zM510.5 577q-35.5 0 -61 -25t-25.5 -60t25.5 -60t61 -25t60.5 25t25 60t-25 60t-60.5 25zM239 307q0 -35 25 -60t60.5 -25t60.5 25t25 60t-25 60t-60.5 25
t-60.5 -25t-25 -60zM554 306.5q0 17.5 -13 30t-30.5 12.5t-30.5 -12.5t-13 -30t13 -30t30.5 -12.5t30.5 12.5t13 30zM424 122.5q0 -35.5 25.5 -60.5t61 -25t60.5 25t25 60.5t-25 60.5t-60.5 25t-61 -25t-25.5 -60.5z" />
    <glyph glyph-name="train" unicode="&#xe604;" 
d="M767 4h-41l111 -139h-139l-84 139h-215l-83 -139h-139l111 139h-42q-29 0 -49 20t-20 49v521q0 29 20 49t49 20h139q0 29 20.5 49.5t49.5 20.5h104q29 0 49 -20.5t20 -49.5h139q29 0 49.5 -20t20.5 -49v-521q0 -29 -20.5 -49t-49.5 -20v0zM333 73q22 0 37 15.5t15 37
t-15 36.5t-37 15t-37 -15t-15 -36.5t15 -37t37 -15.5v0zM732 559h-451v-278h451v278zM680 177q-21 0 -36.5 -15t-15.5 -36.5t15.5 -37t37 -15.5t36.5 15.5t15 37t-15 36.5t-37 15v0z" />
    <glyph glyph-name="icon_fortune" unicode="&#xe68c;" 
d="M812 120q-3 -49 -18 -87t-37 -59.5t-49.5 -36.5t-55 -19.5t-53.5 -8.5t-46 -1.5t-31 0.5q-4 -1 -8 3q-4 -4 -8 -3q-12 2 -32 -0.5t-46 1.5t-53.5 8.5t-54.5 19.5t-49 36.5t-37 59.5t-19 87q0 74 18 138.5t43.5 105t59.5 74t58 49t46 25.5q-12 28 -37 66t-44 62l-18 24
l175 5l170 -5q-70 -89 -99 -152q22 -10 46 -25.5t58.5 -49t60 -74t43.5 -105t17 -138.5zM516 281q34 0 52 -20l27 35q-22 25 -59 30v46h-36v-46q-28 -5 -46 -27t-18 -56q0 -70 63 -76l34 -4q28 -3 28 -33q0 -19 -13 -28.5t-33 -9.5q-40 0 -61 29l-29 -36q28 -36 75 -40v-52
h36v54q31 5 49 27t18 58q0 71 -63 78l-34 4q-29 3 -29 31q0 16 10 26t29 10z" />
    <glyph glyph-name="house" unicode="&#xe624;" 
d="M512 688l343 -343h-4h-46v-45v-298q0 -14 -12 -26.5t-26 -12.5h-123v208q0 51 -29.5 80.5t-80.5 29.5h-44q-51 0 -80.5 -29.5t-29.5 -80.5v-208h-123q-14 0 -26 12.5t-12 26.5v298v45h-46h-4zM512 752l-451 -452h112v-298q0 -32 25.5 -58t58.5 -26h168v253q0 65 65 65h44
q65 0 65 -65v-253h168q33 0 58.5 26t25.5 58v298h112l-451 452v0z" />
    <glyph glyph-name="game" unicode="&#xe61a;" 
d="M340 287h-23v-99h-99v-24h99v-99h23v99h99v24h-99v99zM721 242zM701 242q0 8 6 14t14 6t14 -6t6 -14t-6 -14t-14 -6t-14 6t-6 14zM721 82zM701 81.5q0 8.5 6 14.5t14 6t14 -6t6 -14.5t-6 -14.5t-14 -6t-14 6t-6 14.5zM641 162zM621 161.5q0 8.5 5.5 14.5t14 6t14.5 -6
t6 -14.5t-6 -14t-14.5 -5.5t-14 5.5t-5.5 14zM801 162zM781 161.5q0 8.5 6 14.5t14.5 6t14 -6t5.5 -14.5t-5.5 -14t-14 -5.5t-14.5 5.5t-6 14zM695 463v0h-118q-17 34 -56 40q-13 54 18 85q12 12 27 20.5t25.5 12t30.5 8.5q32 9 50 16q15 7 29.5 20t24 26t18 28t11 21
t4.5 10q3 10 -6.5 13.5t-13.5 -5.5q-8 -19 -21 -40q-25 -41 -54 -53q-17 -7 -48 -16q-21 -5 -32.5 -9t-28.5 -13.5t-31 -23.5q-38 -38 -25 -100q-38 -6 -55 -40h-115v0q-121 -4 -206 -91.5t-85 -209.5q0 -125 88.5 -213.5t213.5 -88.5q86 0 159 46v0q5 3 11.5 3t11.5 -3v0
q73 -46 160 -46q124 0 212.5 88.5t88.5 213.5q0 121 -84 208.5t-204 92.5zM682 -116q-83 0 -152 44v0q-7 6 -19.5 6t-19.5 -6q-69 -44 -151 -44q-116 0 -197.5 81.5t-81.5 196.5q0 112 78.5 193t189.5 85v0h109h18h109h18h99v0q115 0 196.5 -81.5t81.5 -196.5t-81.5 -196.5
t-196.5 -81.5z" />
    <glyph glyph-name="music" unicode="&#xe8f0;" horiz-adv-x="1025" 
d="M1001 881q-18 15 -41 15q-6 0 -11 -1l-544 -96q-23 -4 -38 -22t-15 -41v-549q-52 37 -121 37q-41 0 -81 -13q-46 -16 -81 -45t-53 -67q-29 -60 -7 -120q18 -49 66 -78t110 -29q42 0 81 13q46 15 81 44.5t53 67.5q15 31 15 67h1v512q5 0 11 1l533 94v-388q-52 37 -121 37
q-41 0 -81 -13q-46 -16 -81 -45t-53 -67q-29 -60 -7 -120q18 -49 66 -78t110 -29q42 0 81 13q46 15 81 44.5t53 67.5q15 31 15 67h1v672q0 30 -23 49v0zM246.5 -54q-57.5 -19 -109.5 -3t-68 58.5t13.5 86t87 62.5t109.5 3t68 -58.5t-13.5 -86t-87 -62.5zM852.5 42
q-57.5 -19 -109 -3t-67.5 58.5t13.5 86t87 62.5t109.5 2.5t67.5 -58.5t-14 -85.5t-87 -62.5zM959 736l-544 -96v96l544 96v-96z" />
    <glyph glyph-name="drink" unicode="&#xe66b;" 
d="M738 527q13 0 22.5 -9.5t9.5 -22.5l-58 -643q0 -14 -9.5 -23t-23.5 -9h-334q-14 0 -23.5 9t-9.5 23l-58 643q0 13 9.5 22.5t22.5 9.5h289l34 174l155 79l-12 -41l-115 -58l-30 -154h131zM560 301h129l-36 -417h-282l-36 417h193l40 194h-282l59 -643h334l59 643h-137z
" />
    <glyph glyph-name="card" unicode="&#xe62f;" 
d="M869 503v0l-771 -216l-28 108q-8 29 7 55t44 34l638 171q29 7 56 -7.5t35 -43.5l19 -101v0zM901 423l58 -214q7 -29 -10 -54t-47 -33l-638 -171q-29 -8 -54.5 5.5t-33.5 42.5l-58 215zM494 200l-110 -29l12 -47l110 30zM635 238l-95 -25l12 -47l95 26zM790 280l-125 -34
l12 -46l126 33zM255 87l110 29l-12 46l-110 -29z" />
    <glyph glyph-name="hotel" unicode="&#xe602;" 
d="M33 811v-1022v1022zM65 811v-1022v1022zM97 811v-1022v1022zM129 811v-1022v1022zM161 811v-1022v1022zM193 811v-1022v1022zM225 811v-1022v1022zM256 811v-1022v1022zM288 811v-1022v1022zM320 811v-1022v1022zM352 811v-1022v1022zM384 811v-1022v1022zM416 811v-1022
v1022zM448 811v-1022v1022zM480 811v-1022v1022zM512 811v-1022v1022zM544 811v-1022v1022zM576 811v-1022v1022zM608 811v-1022v1022zM640 811v-1022v1022zM672 811v-1022v1022zM704 811v-1022v1022zM736 811v-1022v1022zM768 811v-1022v1022zM799 811v-1022v1022zM831 811
v-1022v1022zM863 811v-1022v1022zM895 811v-1022v1022zM927 811v-1022v1022zM959 811v-1022v1022zM991 811v-1022v1022zM1 779h1022h-1022zM1 747h1022h-1022zM1 715h1022h-1022zM1 683h1022h-1022zM1 651h1022h-1022zM1 619h1022h-1022zM1 587h1022h-1022zM1 556h1022
h-1022zM1 524h1022h-1022zM1 492h1022h-1022zM1 460h1022h-1022zM1 428h1022h-1022zM1 396h1022h-1022zM1 364h1022h-1022zM1 332h1022h-1022zM1 300h1022h-1022zM1 268h1022h-1022zM1 236h1022h-1022zM1 204h1022h-1022zM1 172h1022h-1022zM1 140h1022h-1022zM1 108h1022
h-1022zM1 76h1022h-1022zM1 44h1022h-1022zM1 13h1022h-1022zM1 -19h1022h-1022zM1 -51h1022h-1022zM1 -83h1022h-1022zM1 -115h1022h-1022zM1 -147h1022h-1022zM1 -179h1022h-1022zM918 451h-305v-534h305v534zM567 735v0h-490v-817h69v114q0 16 11.5 27t27.5 11h275
q16 0 27 -11t11 -27v-114h69v817v0zM712 345v0q-10 0 -16.5 6.5t-6.5 15.5q0 10 6.5 17t16.5 7h107q9 0 15.5 -7t6.5 -17q0 -9 -6.5 -15.5t-15.5 -6.5h-107zM712 222v0q-10 0 -16.5 7t-6.5 16q0 10 6.5 16.5t16.5 6.5h107q9 0 15.5 -6.5t6.5 -16.5q0 -9 -6.5 -16t-15.5 -7
h-107zM712 100v0q-10 0 -16.5 7t-6.5 16t6.5 16t16.5 7h107q9 0 15.5 -7t6.5 -16t-6.5 -16t-15.5 -7h-107zM712 -22v0q-10 0 -16.5 6.5t-6.5 16.5q0 9 6.5 16t16.5 7h107q9 0 15.5 -7t6.5 -16q0 -10 -6.5 -16.5t-15.5 -6.5h-107zM147 623v0q-9 0 -16 6.5t-7 16t7 16t16 6.5
h107q9 0 16 -6.5t7 -16t-7 -16t-16 -6.5h-107zM391 623v0q-10 0 -16.5 6.5t-6.5 16t6.5 16t16.5 6.5h106q10 0 16.5 -6.5t6.5 -16t-6.5 -16t-16.5 -6.5h-106zM147 500v0q-9 0 -16 7t-7 16.5t7 16t16 6.5h107q9 0 16 -6.5t7 -16t-7 -16.5t-16 -7h-107zM391 500v0
q-10 0 -16.5 7t-6.5 16.5t6.5 16t16.5 6.5h106q10 0 16.5 -6.5t6.5 -16t-6.5 -16.5t-16.5 -7h-106zM147 378v0q-9 0 -16 7t-7 16q0 10 7 16.5t16 6.5h107q9 0 16 -6.5t7 -16.5q0 -9 -7 -16t-16 -7h-107zM391 378v0q-10 0 -16.5 7t-6.5 16q0 10 6.5 16.5t16.5 6.5h106
q10 0 16.5 -6.5t6.5 -16.5q0 -9 -6.5 -16t-16.5 -7h-106zM147 256v0q-10 0 -16.5 6.5t-6.5 16.5q0 9 7 16t16 7h107q9 0 16 -7t7 -16q0 -10 -7 -16.5t-16 -6.5h-107zM391 256v0q-10 0 -16.5 6.5t-6.5 16.5q0 9 6.5 16t16.5 7h106q10 0 16.5 -7t6.5 -16q0 -10 -6.5 -16.5
t-16.5 -6.5h-106zM147 134v0q-10 0 -16.5 6.5t-6.5 16.5q0 9 7 16t16 7h107q9 0 16 -6.5t7 -16.5t-7 -16.5t-16 -6.5h-107zM391 134v0q-10 0 -16.5 6.5t-6.5 16.5q0 9 6.5 16t16.5 7h106q10 0 16.5 -7t6.5 -16q0 -10 -6.5 -16.5t-16.5 -6.5h-106zM644 528v0h312
q16 0 27 -11.5t11 -27.5v-610q0 -15 -11 -26.5t-27 -11.5h-496q-16 0 -27 11.5t-11 26.5v115h-199v-115q0 -15 -11.5 -26.5t-26.5 -11.5h-145q-16 0 -27.5 11.5t-11.5 26.5v893q0 17 11.5 28t27.5 11h566q15 0 26.5 -11t11.5 -28v-244v0z" />
    <glyph glyph-name="game1" unicode="&#xe628;" 
d="M444 569q-28 0 -47.5 -20t-19.5 -47.5t19.5 -47.5t47.5 -20t47.5 20t19.5 47.5t-19.5 47.5t-47.5 20zM836 -58h-280v138q124 16 207.5 110.5t83.5 221.5q0 91 -45 168.5t-122.5 122t-168.5 44.5t-168 -44.5t-122 -122t-45 -168.5q0 -127 83.5 -221.5t207.5 -110.5v-138
h-280q-14 0 -24 -10t-10 -23v-23q0 -14 10 -23.5t24 -9.5h649q14 0 23.5 9.5t9.5 23.5v23q0 13 -9.5 23t-23.5 10zM265 412q0 102 72 174t174 72t174 -72t72 -174t-72 -174t-174 -72t-174 72t-72 174z" />
    <glyph glyph-name="flower" unicode="&#xe643;" 
d="M540 -204h-56q-7 0 -12 5t-5 12v41q-5 -4 -11 -4q-164 0 -238 89q-20 24 -32.5 53.5t-16.5 52.5t-4.5 47.5t0.5 33.5t2 15q3 14 17 14q153 0 229 -85q40 -46 54 -111v179q0 7 5 12t12 5h56q7 0 12 -5t5 -12v-179q14 65 55 111q75 85 228 85q14 0 17 -14q1 -6 2 -15
t0.5 -33.5t-4.5 -47.5t-16.5 -52.5t-32.5 -53.5q-74 -89 -238 -89q-6 0 -11 4v-41q0 -7 -5 -12t-12 -5zM502 -169h20v289h-20v-289zM824 120q-125 -4 -186 -73q-55 -63 -53 -162q134 4 195 77q52 62 44 158zM200 120q-8 -97 44 -159q61 -72 195 -76q2 99 -53 162
q-61 69 -186 73zM622 147q-61 0 -110 38q-49 -38 -110 -38q-76 0 -129.5 53t-53.5 127q0 15 4 32q-59 53 -59 130q0 72 50 123.5t122 56.5q15 59 64 97t112 38t112 -38t65 -98q72 -5 121.5 -56.5t49.5 -122.5q0 -77 -59 -130q4 -17 4 -32q0 -74 -53.5 -127t-129.5 -53z
M512 224q7 0 11 -4q43 -38 99 -38q61 0 104.5 42.5t43.5 102.5q0 15 -5 34q-2 11 6 17q54 44 54 111q0 60 -43.5 102.5t-104.5 42.5q-7 0 -13 4t-7 10q-9 53 -50 87t-95 34t-95 -34t-50 -87q-3 -14 -18 -14q-63 0 -106.5 -42.5t-43.5 -102.5q0 -67 54 -111q8 -7 6 -17
q-5 -19 -5 -34q0 -60 43.5 -102.5t104.5 -42.5q56 0 99 38q4 4 11 4zM512 337q-53 0 -90 36.5t-37 88.5t37 89t90 37t90 -37t37 -89t-37 -88.5t-90 -36.5zM512 553q-38 0 -65.5 -26.5t-27.5 -64t27.5 -64.5t65.5 -27t65.5 27t27.5 64.5t-27.5 64t-65.5 26.5z" />
    <glyph glyph-name="gehuhuazhuang" unicode="&#xe603;" 
d="M666 450v136l-2 5v0l-5 11l-6 14l-8 15l-10 18l-12 19l-6 9l-7 10l-7 10l-7 10l-7 10l-8 9l-8 10l-8 9l-8 9l-9 8l-8 8l-9 8l-9 7l-9 6l-9 6l-9 5l-4 1l-5 2l-5 2l-4 2l-5 1l-4 1h-5l-4 1h-5h-5l-4 -1h-4v0l-7 -2l-7 -2l-6 -3l-5 -3l-6 -4l-4 -4l-5 -4l-5 -5l-4 -5l-3 -6
l-4 -6l-3 -7l-3 -7l-3 -7l-2 -7l-2 -8l-2 -7l-2 -8l-2 -8l-1 -8l-3 -17l-1 -17l-1 -17l-1 -17l-1 -16v-16v-150v0l-6 -4l-6 -4l-6 -4l-5 -5l-6 -5l-4 -5l-5 -6l-3 -6l-4 -6l-3 -6l-3 -7l-2 -7l-2 -7l-2 -7v-8l-1 -8v-461v0v-6l1 -5l1 -5l1 -6l1 -5l1 -5l2 -5l2 -4l2 -5l2 -5
l3 -4l2 -4l4 -4l3 -4l3 -4l3 -4l4 -4l4 -3l4 -3l4 -3l4 -3l5 -2l4 -3l5 -2l5 -2l5 -1l5 -2l5 -1l5 -1h5l6 -1h5h212v0h5l6 1h5l5 1l5 1l5 2l5 1l5 2l5 2l4 3l5 2l4 3l4 3l4 3l4 3l4 4l3 4l4 4l3 4l3 4l2 4l3 4l2 5l2 5l2 4l2 5l1 5l2 5l1 6v5l1 5v6v461v0v8l-1 8l-2 7l-2 7
l-2 7l-3 7l-3 6l-3 6l-4 6l-5 6l-4 5l-6 5l-5 5l-6 4l-6 4l-6 4v0zM406 403h212v0h4h4l4 -1l5 -1l3 -2l4 -2l3 -2l3 -2l4 -3l2 -3l3 -3l2 -4l2 -3l2 -4l1 -4l1 -4h-306v0l1 4l1 4l2 4l2 3l2 4l3 3l3 3l3 3l3 2l3 2l4 2l4 2l4 1l4 1h4h4v0zM451 754v0h4h4l4 -1l4 -2l5 -2
l5 -2l4 -4l6 -3l5 -4l5 -5l6 -5l6 -5l5 -6l6 -6l12 -13l11 -14l11 -15l11 -15l10 -16l10 -15l9 -16l4 -7l4 -8l3 -8l3 -7v-114h-192v139v0v20l1 20l1 17l1 15l2 15l3 12l2 11l3 10l2 8l3 7l3 6l3 4l3 4l3 2l3 2l2 1v0zM666 -106v0v-5l-1 -5l-1 -4l-2 -5l-2 -4l-2 -4l-3 -4
l-3 -3l-4 -3l-3 -3l-4 -3l-4 -1l-5 -2l-4 -1l-5 -1h-5h-212v0h-5l-5 1l-4 1l-4 2l-5 1l-4 3l-3 3l-4 3l-3 3l-3 4l-2 4l-2 4l-2 5l-1 4v5l-1 5v433h308v-433v0v0zM666 -106z" />
    <glyph glyph-name="car" unicode="&#xe61b;" 
d="M296 432h432q33 0 53 21q22 23 16 58q-1 3 -1 4l-41 145q-8 28 -33 43.5t-61 15.5h-308q-34 0 -56.5 -16t-27.5 -43l-41 -145q-1 -3 -1 -6q-6 -33 16 -55q20 -22 53 -22v0zM331 645q2 11 22 11h308q29 0 33 -14l40 -145q-1 -1 -6 -1h-432q-5 0 -6 2zM1007 332
q-3 44 -30 80.5t-69 54.5l-50 196q-14 63 -70.5 107.5t-122.5 44.5h-306q-66 0 -122.5 -44.5t-70.5 -107.5l-50 -196q-42 -18 -69 -54.5t-30 -80.5l-11 -148q-4 -47 21 -86.5t69 -56.5q10 -39 42 -63.5t74 -24.5q35 0 63 28t42 68h390q14 -40 42 -68t63 -28q42 0 74 24.5
t42 63.5q44 17 69 56.5t21 86.5zM905 100l-30 -12l-8 -31q-5 -18 -20 -29t-35 -11q-10 0 -23.5 15.5t-21.5 38.5l-16 41h-478l-16 -41q-8 -23 -21.5 -38.5t-23.5 -15.5q-20 0 -35 11t-20 29l-8 31l-30 12q-24 10 -38 32t-12 48l12 147q2 26 18.5 48t42.5 34l28 12l8 30
l50 197l1 1q8 41 47.5 71.5t82.5 30.5h306q43 0 82 -30.5t48 -71.5l1 -1v-1l58 -226l28 -12q26 -12 42.5 -34t18.5 -48l12 -147q2 -26 -12 -48t-38 -32v0zM283 396q-52 0 -89 -36.5t-37 -88t37 -87.5t89 -36t88.5 36t36.5 87.5t-36.5 88t-88.5 36.5zM282.5 211
q-25.5 0 -43.5 18t-18 43t18 42.5t43.5 17.5t44 -17.5t18.5 -42.5t-18.5 -43t-44 -18zM741 396q-52 0 -88.5 -36.5t-36.5 -88t36.5 -87.5t88.5 -36t89 36t37 87.5t-37 88t-89 36.5zM741.5 211q-25.5 0 -44 18t-18.5 43t18.5 42.5t44 17.5t43.5 -17.5t18 -42.5t-18 -43
t-43.5 -18z" />
    <glyph glyph-name="electric" unicode="&#xe67b;" 
d="M512.5 895q-118.5 0 -219.5 -56.5t-159.5 -153.5t-58.5 -211q0 -62 19.5 -126t48 -115.5t71 -105t76.5 -88.5t76.5 -72t60.5 -51t38 -28q5 -4 6 -5q13 -10 41 -10q31 0 44 10q1 1 5 4l38 28.5t60 50.5t76 72t76 88.5t70.5 105t48 116t19.5 126.5q0 114 -58.5 211
t-159 153.5t-219 56.5zM457 83l36 290h-184l245 389l-35 -290h191z" />
    <glyph glyph-name="trangleminidown" unicode="&#xe792;" 
d="M512 192l-320 384h640z" />
    <glyph glyph-name="fangdajing" unicode="&#xe629;" 
d="M586.5 831q-101.5 0 -188 -50.5t-137 -137t-50.5 -187.5q0 -111 61 -204q-20 -3 -44 -23l-151 -152q-2 -2 -5 -7t-6.5 -19t-2.5 -27t12.5 -30t34.5 -30q2 -2 6.5 -5t18 -8t25.5 -7t27 2.5t26 17.5l146 146q13 11 18 34q95 -63 209 -63q102 0 188.5 50t136.5 136.5t50 188
t-50 188t-136.5 137t-188 50.5zM586.5 173q-116.5 0 -199.5 83t-83 199.5t83 199.5t199.5 83t199.5 -83t83 -199.5t-83 -199.5t-199.5 -83z" />
    <glyph glyph-name="favorite" unicode="&#xe622;" 
d="M512 797q-88 0 -169 -34.5t-139 -93t-92.5 -139t-34.5 -169t34.5 -169t92.5 -138.5t139 -92.5t169 -34.5t169 34.5t139 92.5t92.5 138.5t34.5 169t-34.5 169t-92.5 139t-139 93t-169 34.5zM702 70l-190 100l-190 -100l37 211l-154 150l212 31l95 192l95 -192l212 -31
l-154 -150z" />
    <glyph glyph-name="boot" unicode="&#xe605;" 
d="M588 47h-437q-12 0 -20 8t-8 20v3v10q0 99 69 171q69 71 168 75h3q82 0 140 58t58 140v161q0 12 8 20t20 8h283q12 0 20 -8t8 -20v-605q0 -4 -1 -7q1 -3 1 -6q0 -12 -8 -20t-20 -8h-284v0zM589 713q-8 0 -14 -6t-6 -14v-161q0 -85 -60.5 -145.5t-145.5 -60.5h-2h-1
q-95 -4 -162 -73t-67 -165v-10v0v-1v-2q0 -8 5.5 -14t14.5 -6h721q8 0 14 6t6 14q0 2 -1 5v1v1q1 3 1 6v605q0 8 -6 14t-14 6h-283z" />
    <glyph glyph-name="wheel" unicode="&#xe696;" 
d="M627 818q-46 15 -111 15h-2.5h-1.5h-1.5h-2.5q-65 0 -111 -15q-148 -39 -242.5 -159t-92.5 -273q0 -151 93 -270t237 -160q47 -17 116 -17h2.5h1.5h1.5h2.5q69 0 116 17q144 41 237 160t93 270q2 153 -92.5 273t-242.5 159zM637 24v1q-5 -2 -11 -5q-55 -17 -114 -17
t-114 17q-6 3 -11 5v-1q-115 39 -186 138.5t-71 223.5q0 123 71.5 222t185.5 139v0l1 0.5l1 0.5q60 21 123 21t123 -21l1 -0.5l1 -0.5v0q114 -40 185.5 -139t71.5 -222q0 -124 -71 -223.5t-186 -138.5zM637 690q-48 25 -124 25h-0.5h-0.5h-0.5h-0.5q-76 0 -124 -25
q-90 -37 -145 -119.5t-55 -184.5q0 -98 52 -178t138 -120v-2q48 -29 131 -29h2.5h1.5h1.5h2.5q83 0 131 29v2q86 40 138 120t52 178q0 102 -55 184.5t-145 119.5zM612 469l110 65l21 34q22 -28 37 -61l-41 -2l-109 -65q-7 15 -18 29zM739 274l43 -2q-14 -35 -36 -65l-24 38
l-111 66q11 13 18 28zM723 592l-17 -32l-117 -69q-15 10 -31 16v146l15 24q88 -19 150 -85zM607 386q0 -39 -26 -65.5t-66 -26.5q-39 0 -65.5 27.5t-26.5 64.5q0 39 27.5 65.5t64.5 26.5t63.5 -26t28.5 -66zM512 683q14 0 29 -1l-16 -29v-139h-10q-11 0 -23 -2v141l-13 28
q17 2 33 2zM447 676l12 -23v-152q-10 -5 -20 -13l-121 72l-17 32q61 64 146 84zM399 342q7 -15 17 -29l-114 -68l-24 -38q-22 30 -36 65l43 2zM399 437l-114 68l-41 2q15 33 37 61l21 -34l114 -68q-10 -14 -17 -29zM232 475l37 3l121 -72l2 2q-2 -9 -2 -19q0 -7 1 -14l-1 1
l-121 -72h-39q-11 40 -11 82q0 46 13 89zM299 183l19 35l121 72q10 -7 20 -12v-155l-15 -26q-85 21 -145 86zM512 89q-16 0 -32 2l16 32v143q9 -2 19 -2q7 0 13 1v-142l16 -32q-16 -2 -32 -2zM580 97l-15 26v152q12 6 23 14l118 -71l19 -35q-60 -65 -145 -86zM794 304h-39
l-116 69q1 9 1 16q0 10 -1 20l116 69l37 -3q13 -43 13 -89q0 -42 -11 -82z" />
    <glyph glyph-name="sport" unicode="&#xe645;" 
d="M744 675q-12 -10 -13 -10q-63 -58 -105 -119q-43 -63 -58 -123q-10 -42 -7 -81v-5q-57 -5 -114 -1q-2 32 -2 34q-1 54 0 76q2 38 10 83q23 121 83 221q2 4 6 4q55 -5 104 -24q51 -20 94 -53zM412 339q-43 8 -64 12l1 15q5 60 -22 122q-21 49 -59 95q-2 3 -37 41
q105 119 263 130q-99 -206 -82 -415zM603 343q-3 26 0 52q7 58 48 119q45 67 124 131l2 1q25 -28 26 -29q51 -63 71 -141q1 -4 -2 -7q-28 -31 -71 -57q-77 -47 -178 -66q-2 -1 -19 -4zM517 11q-176 3 -291 137q5 5 5 6q47 51 63 73q30 41 44 85q1 2 2 3v1q23 -4 24 -5
q20 -3 48 -7q4 -1 5 -5q13 -93 53 -183q2 -5 45 -100l2 -5v0zM611 306q22 4 23 5q81 16 162 54q43 20 86 41l3 1q5 -80 -23 -154q-27 -74 -84 -131q-130 67 -167 184zM731 82q-69 -50 -154 -65q0 4 0.5 5.5t-1.5 4t-2.5 3.5t-3 3.5l-3.5 3.5q-36 37 -64 95q-36 73 -50 164
q-1 0 -1 3q22 -1 23 -1q31 0 70 1q4 0 10.5 0.5t9.5 0.5t3 -2q17 -63 71 -121q28 -30 71 -76q1 -1 21 -19v0zM301 364q-39 14 -41 15q-58 23 -110 56q-3 3 -3 6q13 80 58 148l1 1q25 -27 26 -29q36 -43 54 -89q20 -53 15 -108zM143 390q73 -38 152 -62q-21 -81 -95 -144
q-59 94 -57 206z" />
    <glyph glyph-name="furnitureall" unicode="&#xe7dc;" 
d="M405 365h-278l-34 -359h-68v-35h56v-87h21v33h328v-33h21v87h56v35h-67zM430 -69h-328v40h328v-40zM76 398h21v61h354v-61h21v61h20v42v57v156h-34v165h-368v-165h-33v-156v-57v-42h19v-61zM560 644h14v-254h29v254h14v-126h28v126h267v-126h28v126h14v-254h29v254h16v43
h-1l-40 190h-358l-40 -190v0v-43zM955 366h-354v-384v-37v-61h21v61h312v-61h21v61v37v384z" />
    <glyph glyph-name="typemug" unicode="&#xe70c;" 
d="M824 524h-134v67q0 46 -78.5 79t-189.5 33t-189.5 -33t-78.5 -79v-447q0 -46 78.5 -79t189.5 -33t189.5 33t78.5 79v67h134q19 0 32 13t13 32v223q0 19 -13 32t-32 13zM277 567q-33 10 -50 24q17 14 50 24q62 21 145 21q82 0 145 -21q32 -10 50 -24q-18 -14 -50 -24
q-63 -21 -145 -21q-83 0 -145 21zM779 300h-89v135h89v-135z" />
    <glyph glyph-name="nav" unicode="&#xe601;" 
d="M115 698h806v-114h-806v114zM115 230h806v-114h-806v114zM113 467h807v-115h-807v115z" />
    <glyph glyph-name="svgtoy" unicode="&#xe6a6;" 
d="M64 384q0 185 131.5 316.5t316.5 131.5t316.5 -131.5t131.5 -316.5t-131.5 -316.5t-316.5 -131.5t-316.5 131.5t-131.5 316.5zM706 468q-2 -2 -11.5 -15.5t-12.5 -15.5q-20 -21 -57 -25q-38 -5 -62 3q31 35 31 80q0 52 -37.5 88t-91.5 36q-45 0 -78.5 -23.5t-42.5 -58.5
q-28 5 -42 4q-36 -4 -36 -41q0 -25 25 -46.5t52 -35.5q-32 -22 -50.5 -56.5t-18.5 -73.5q0 -64 47.5 -109t119.5 -53q118 -11 205 18.5t124 99.5q31 59 20 125t-56 99q-14 10 -28 0zM740 260q-31 -60 -109.5 -85.5t-185.5 -14.5q-60 6 -98.5 42t-38.5 86q0 38 22 69.5
t58 47.5q10 4 10 15.5t-11 15.5q-38 14 -63 32t-25 32q0 5 1 6t5 1q11 1 47 -6q7 -1 12.5 2.5t7.5 10.5q7 31 33 51.5t60 20.5q40 0 68 -26.5t28 -64.5q0 -48 -43 -75q-9 -5 -7.5 -16t11.5 -14q55 -18 106 -12q50 6 79 35q12 13 18 22q27 -28 32 -80.5t-17 -94.5zM431 497
q0 -11 8 -18.5t19.5 -7.5t19 7.5t7.5 18.5t-7.5 19t-19 8t-19.5 -8t-8 -19z" />
    <glyph glyph-name="computer" unicode="&#xe6f3;" 
d="M869 820h-714q-33 0 -56 -23t-23 -56v-595q0 -33 23 -56t56 -23h278v-80h-60q-8 0 -14 -5.5t-6 -14t6 -14t14 -5.5h278q8 0 14 5.5t6 14t-6 14t-14 5.5h-60v80h278q33 0 56 23t23 56v595q0 33 -23 56t-56 23zM552 -13h-80v80h80v-80zM909 146q0 -16 -12 -28t-28 -12h-714
q-16 0 -28 12t-12 28v40h794v-40zM909 225h-794v516q0 16 12 28t28 12h714q16 0 28 -12t12 -28v-516z" />
    <glyph glyph-name="service" unicode="&#xe619;" 
d="M653 262q4 5 3.5 11.5t-5.5 10.5t-11.5 3t-10.5 -6q-48 -54 -117 -54q-37 0 -63.5 12t-53.5 42q-4 5 -10.5 6t-11.5 -3t-5.5 -10.5t3.5 -11.5q31 -37 63.5 -52.5t77.5 -15.5q85 0 141 68v0zM395 426v55q0 11 -8 19.5t-19 8.5t-19 -8t-8 -20v-55q0 -12 8 -20t19 -8t19 8
t8 20v0zM870 484q-30 127 -130 210t-228 83t-228 -83t-130 -210q-33 -13 -53.5 -46.5t-20.5 -76.5q0 -49 26.5 -85.5t66.5 -43.5q0 -1 1 -1h61q-38 74 -38 158q0 90 42 166.5t114.5 121t158.5 44.5t158.5 -44.5t114.5 -121t42 -166.5q0 -92 -43 -168.5t-116 -120.5
q-7 2 -13 2q-22 0 -38 -16.5t-16 -39t16 -39t38 -16.5t38 16.5t16 39.5q0 5 -2 12q98 66 143 173q40 7 67 43.5t27 85.5q0 42 -20.5 76t-53.5 47v0zM683 426v55q0 11 -8 19.5t-19 8.5t-19 -8t-8 -20v-55q0 -12 8 -20t19 -8t19 8t8 20v0zM683 426z" />
    <glyph glyph-name="travel" unicode="&#xe6f9;" 
d="M948.5 405.5q-0.5 16.5 -13.5 24.5l-91 60q-8 5 -17 5h-211l-208 242q-9 11 -23 11h-109q-17 0 -26 -13.5t-3 -29.5l84 -203h-98l-104 81q-16 13 -34 3t-16 -31l22 -171l-22 -127q-3 -21 15 -32t35 2l104 77l100 1l-84 -202q-7 -15 2.5 -29t25.5 -14h108q14 0 23 11
l207 233l211 -1v0q10 0 18 7l92 69q13 10 12.5 26.5zM815 366h-213h-1q-14 0 -23 -10l-207 -233h-47l85 201q6 16 -3 30t-26 14v0l-158 -1q-10 -1 -18 -7l-50 -37l9 55q1 4 0 9l-12 101l52 -41q9 -7 20 -7h155v0q16 0 25.5 13.5t3.5 29.5l-84 203h47l208 -242q9 -11 23 -11
l216 -1l46 -30z" />
    <glyph glyph-name="jewel" unicode="&#xe661;" horiz-adv-x="1025" 
d="M1022 523.5q-5 12.5 -17 18t-24 0.5l-224 -84l-118 415q-3 10 -11.5 16.5t-19.5 6.5h-192q-11 0 -19.5 -6.5t-11.5 -16.5l-118 -415l-224 84q-12 5 -24 -0.5t-17 -18t0.5 -24.5t18.5 -17l243 -91l219 -500q8 -19 29 -19t29 19l219 500l243 91q13 5 18.5 17t0.5 24.5z
M440 832h144l110 -384h-364zM512 -16l-175 400h350zM768 832l192 -320l-448 -576l-448 576l192 320h512v0zM768 896h-512q-36 0 -55 -31l-192 -320q-10 -17 -9 -37t13 -35l448 -576q20 -25 51 -25t51 25l448 576q12 15 13 35t-9 37l-192 320q-19 31 -55 31v0z" />
    <glyph glyph-name="dress" unicode="&#xe6c4;" 
d="M753 431v69q33 80 29 174q-2 56 31 168l6 21l-142 33l-5 -20q-7 -29 -31 -59q-47 -60 -129 -60q-36 0 -65.5 12.5t-46 27.5t-28.5 35t-15 29l-5 15l-4 20l-143 -33l7 -21q33 -112 30 -168q-4 -94 30 -174v-69l-207 -466l12 -10q5 -5 14.5 -11t44.5 -20t79.5 -24.5
t123.5 -19t173 -8.5t173 8.5t123.5 19t79.5 24.5t44.5 20t14.5 11l12 10zM314 448v30h396v-30h-396zM318 846q12 -31 32 -56q59 -75 162 -75t162 75q20 25 32 56l60 -14q-29 -107 -27 -159q4 -81 -24 -152h-406q-28 70 -24 152q2 52 -27 159zM836 -49q-125 -37 -324 -37
t-324 37q-43 12 -71 28l190 427h79l-42 -186l41 -9l44 195h164l44 -195l41 9l-41 186h80l190 -427q-28 -16 -71 -28z" />
    <glyph glyph-name="icon_trangle-right" unicode="&#xe612;" 
d="M288 -102l494 494l-486 486l-46 -44l442 -442l-450 -450z" />
    <glyph glyph-name="coin" unicode="&#xe6d9;" 
d="M512 384zM0 384q0 -139 68.5 -257t186.5 -186.5t257 -68.5t257 68.5t186.5 186.5t68.5 257t-68.5 257t-186.5 186.5t-257 68.5t-257 -68.5t-186.5 -186.5t-68.5 -257zM512 -20q-110 0 -203 54t-147 147t-54 203t54 203t147 147t203 54t203 -54t147 -147t54 -203t-54 -203
t-147 -147t-203 -54zM512 896q-139 0 -257 -68.5t-186.5 -186.5t-68.5 -257t68.5 -257t186.5 -186.5t257 -68.5v1024zM512 788q-110 0 -203 -54t-147 -147t-54 -203t54 -203t147 -147t203 -54v808zM235 428q-18 0 -31 -13t-13 -31t13 -31t31 -13t31 13t13 31t-13 31t-31 13z
M789 428q-18 0 -31 -13t-13 -31t13 -31t31 -13t31 13t13 31t-13 31t-31 13zM543 413v113q54 -9 54 -54h62q0 49 -30.5 80t-85.5 38v45h-62v-45q-55 -7 -85.5 -38t-30.5 -80t30.5 -80t85.5 -37v-113q-54 9 -54 54h-62q0 -49 30.5 -80t85.5 -38v-45h62v45q55 7 85.5 38
t30.5 80t-30.5 80t-85.5 37zM427 472q0 45 54 54v-108q-54 9 -54 54zM543 242v108q54 -9 54 -54t-54 -54z" />
  </font>
</defs>
</svg>
